<mxfile host="app.diagrams.net" modified="2024-05-10T13:58:47.578Z" agent="Mozilla/5.0 (Macintosh; Intel Mac OS X 10_15_7) AppleWebKit/537.36 (KHTML, like Gecko) Chrome/124.0.0.0 Safari/537.36" etag="9JyCC51F3_ErN-zL-KfQ" version="24.3.1" type="device">
  <diagram name="Page-1" id="cJ05CwwgMMdr4yz5CLFj">
    <mxGraphModel dx="1674" dy="786" grid="1" gridSize="10" guides="1" tooltips="1" connect="1" arrows="1" fold="1" page="1" pageScale="1" pageWidth="850" pageHeight="1100" math="0" shadow="0">
      <root>
        <mxCell id="0" />
        <mxCell id="1" parent="0" />
        <mxCell id="p9hfhEVAs7YH4x7z1BMj-19" value="" style="group" parent="1" vertex="1" connectable="0">
          <mxGeometry x="20" y="60" width="280" height="510" as="geometry" />
        </mxCell>
        <mxCell id="p9hfhEVAs7YH4x7z1BMj-1" value="" style="rounded=1;whiteSpace=wrap;html=1;" parent="p9hfhEVAs7YH4x7z1BMj-19" vertex="1">
          <mxGeometry width="280" height="510" as="geometry" />
        </mxCell>
        <mxCell id="p9hfhEVAs7YH4x7z1BMj-2" value="" style="rounded=1;whiteSpace=wrap;html=1;" parent="p9hfhEVAs7YH4x7z1BMj-19" vertex="1">
          <mxGeometry x="10" y="50" width="260" height="200" as="geometry" />
        </mxCell>
        <mxCell id="p9hfhEVAs7YH4x7z1BMj-3" value="" style="rounded=1;whiteSpace=wrap;html=1;" parent="p9hfhEVAs7YH4x7z1BMj-19" vertex="1">
          <mxGeometry x="10" y="420" width="260" height="60" as="geometry" />
        </mxCell>
        <mxCell id="p9hfhEVAs7YH4x7z1BMj-4" value="" style="rounded=0;whiteSpace=wrap;html=1;" parent="p9hfhEVAs7YH4x7z1BMj-19" vertex="1">
          <mxGeometry x="10" y="270" width="260" height="60" as="geometry" />
        </mxCell>
        <mxCell id="p9hfhEVAs7YH4x7z1BMj-5" value="" style="triangle;whiteSpace=wrap;html=1;" parent="p9hfhEVAs7YH4x7z1BMj-19" vertex="1">
          <mxGeometry x="200" y="360" width="30" height="30" as="geometry" />
        </mxCell>
        <mxCell id="p9hfhEVAs7YH4x7z1BMj-6" value="" style="triangle;whiteSpace=wrap;html=1;" parent="p9hfhEVAs7YH4x7z1BMj-19" vertex="1">
          <mxGeometry x="240" y="360" width="30" height="30" as="geometry" />
        </mxCell>
        <mxCell id="p9hfhEVAs7YH4x7z1BMj-12" value="" style="triangle;whiteSpace=wrap;html=1;rotation=-180;" parent="p9hfhEVAs7YH4x7z1BMj-19" vertex="1">
          <mxGeometry x="50" y="360" width="30" height="30" as="geometry" />
        </mxCell>
        <mxCell id="p9hfhEVAs7YH4x7z1BMj-13" value="" style="triangle;whiteSpace=wrap;html=1;rotation=-180;" parent="p9hfhEVAs7YH4x7z1BMj-19" vertex="1">
          <mxGeometry x="10" y="360" width="30" height="30" as="geometry" />
        </mxCell>
        <mxCell id="p9hfhEVAs7YH4x7z1BMj-14" value="" style="whiteSpace=wrap;html=1;aspect=fixed;" parent="p9hfhEVAs7YH4x7z1BMj-19" vertex="1">
          <mxGeometry x="105" y="360" width="30" height="30" as="geometry" />
        </mxCell>
        <mxCell id="p9hfhEVAs7YH4x7z1BMj-17" value="" style="triangle;whiteSpace=wrap;html=1;" parent="p9hfhEVAs7YH4x7z1BMj-19" vertex="1">
          <mxGeometry x="145" y="360" width="30" height="30" as="geometry" />
        </mxCell>
        <mxCell id="p9hfhEVAs7YH4x7z1BMj-22" value="" style="rounded=0;whiteSpace=wrap;html=1;" parent="1" vertex="1">
          <mxGeometry x="320" y="60" width="510" height="690" as="geometry" />
        </mxCell>
        <mxCell id="p9hfhEVAs7YH4x7z1BMj-23" value="" style="rounded=0;whiteSpace=wrap;html=1;" parent="1" vertex="1">
          <mxGeometry x="320" y="60" width="510" height="40" as="geometry" />
        </mxCell>
        <mxCell id="p9hfhEVAs7YH4x7z1BMj-25" value="" style="rounded=0;whiteSpace=wrap;html=1;" parent="1" vertex="1">
          <mxGeometry x="380" y="120" width="375" height="260" as="geometry" />
        </mxCell>
        <mxCell id="p9hfhEVAs7YH4x7z1BMj-27" value="" style="rounded=0;whiteSpace=wrap;html=1;" parent="1" vertex="1">
          <mxGeometry x="350" y="500" width="450" height="230" as="geometry" />
        </mxCell>
        <mxCell id="p9hfhEVAs7YH4x7z1BMj-28" value="" style="rounded=0;whiteSpace=wrap;html=1;" parent="1" vertex="1">
          <mxGeometry x="380" y="400" width="380" height="40" as="geometry" />
        </mxCell>
        <mxCell id="p9hfhEVAs7YH4x7z1BMj-42" value="" style="group" parent="1" vertex="1" connectable="0">
          <mxGeometry x="440" y="450" width="260" height="30" as="geometry" />
        </mxCell>
        <mxCell id="p9hfhEVAs7YH4x7z1BMj-36" value="" style="triangle;whiteSpace=wrap;html=1;rotation=-180;" parent="p9hfhEVAs7YH4x7z1BMj-42" vertex="1">
          <mxGeometry width="30" height="30" as="geometry" />
        </mxCell>
        <mxCell id="p9hfhEVAs7YH4x7z1BMj-37" value="" style="triangle;whiteSpace=wrap;html=1;rotation=-180;" parent="p9hfhEVAs7YH4x7z1BMj-42" vertex="1">
          <mxGeometry x="40" width="30" height="30" as="geometry" />
        </mxCell>
        <mxCell id="p9hfhEVAs7YH4x7z1BMj-38" value="" style="whiteSpace=wrap;html=1;aspect=fixed;" parent="p9hfhEVAs7YH4x7z1BMj-42" vertex="1">
          <mxGeometry x="95" width="30" height="30" as="geometry" />
        </mxCell>
        <mxCell id="p9hfhEVAs7YH4x7z1BMj-39" value="" style="triangle;whiteSpace=wrap;html=1;" parent="p9hfhEVAs7YH4x7z1BMj-42" vertex="1">
          <mxGeometry x="135" width="30" height="30" as="geometry" />
        </mxCell>
        <mxCell id="p9hfhEVAs7YH4x7z1BMj-40" value="" style="triangle;whiteSpace=wrap;html=1;" parent="p9hfhEVAs7YH4x7z1BMj-42" vertex="1">
          <mxGeometry x="190" width="30" height="30" as="geometry" />
        </mxCell>
        <mxCell id="p9hfhEVAs7YH4x7z1BMj-41" value="" style="triangle;whiteSpace=wrap;html=1;" parent="p9hfhEVAs7YH4x7z1BMj-42" vertex="1">
          <mxGeometry x="230" width="30" height="30" as="geometry" />
        </mxCell>
        <mxCell id="zHAcpZbOX5ymY5F6drOi-1" value="" style="whiteSpace=wrap;html=1;aspect=fixed;" vertex="1" parent="1">
          <mxGeometry x="430" y="520" width="50" height="50" as="geometry" />
        </mxCell>
        <mxCell id="zHAcpZbOX5ymY5F6drOi-2" value="" style="whiteSpace=wrap;html=1;aspect=fixed;" vertex="1" parent="1">
          <mxGeometry x="430" y="590" width="50" height="50" as="geometry" />
        </mxCell>
        <mxCell id="zHAcpZbOX5ymY5F6drOi-3" value="" style="whiteSpace=wrap;html=1;aspect=fixed;" vertex="1" parent="1">
          <mxGeometry x="430" y="660" width="50" height="50" as="geometry" />
        </mxCell>
        <mxCell id="zHAcpZbOX5ymY5F6drOi-4" value="" style="whiteSpace=wrap;html=1;aspect=fixed;" vertex="1" parent="1">
          <mxGeometry x="510" y="520" width="50" height="50" as="geometry" />
        </mxCell>
        <mxCell id="zHAcpZbOX5ymY5F6drOi-5" value="" style="whiteSpace=wrap;html=1;aspect=fixed;" vertex="1" parent="1">
          <mxGeometry x="510" y="590" width="50" height="50" as="geometry" />
        </mxCell>
        <mxCell id="zHAcpZbOX5ymY5F6drOi-6" value="" style="whiteSpace=wrap;html=1;aspect=fixed;" vertex="1" parent="1">
          <mxGeometry x="510" y="660" width="50" height="50" as="geometry" />
        </mxCell>
        <mxCell id="zHAcpZbOX5ymY5F6drOi-7" value="" style="whiteSpace=wrap;html=1;aspect=fixed;" vertex="1" parent="1">
          <mxGeometry x="590" y="520" width="50" height="50" as="geometry" />
        </mxCell>
        <mxCell id="zHAcpZbOX5ymY5F6drOi-8" value="" style="whiteSpace=wrap;html=1;aspect=fixed;" vertex="1" parent="1">
          <mxGeometry x="590" y="590" width="50" height="50" as="geometry" />
        </mxCell>
        <mxCell id="zHAcpZbOX5ymY5F6drOi-9" value="" style="whiteSpace=wrap;html=1;aspect=fixed;" vertex="1" parent="1">
          <mxGeometry x="590" y="660" width="50" height="50" as="geometry" />
        </mxCell>
        <mxCell id="zHAcpZbOX5ymY5F6drOi-14" value="" style="whiteSpace=wrap;html=1;aspect=fixed;" vertex="1" parent="1">
          <mxGeometry x="670" y="520" width="50" height="50" as="geometry" />
        </mxCell>
        <mxCell id="zHAcpZbOX5ymY5F6drOi-15" value="" style="whiteSpace=wrap;html=1;aspect=fixed;" vertex="1" parent="1">
          <mxGeometry x="670" y="590" width="50" height="50" as="geometry" />
        </mxCell>
        <mxCell id="zHAcpZbOX5ymY5F6drOi-16" value="" style="whiteSpace=wrap;html=1;aspect=fixed;" vertex="1" parent="1">
          <mxGeometry x="670" y="660" width="50" height="50" as="geometry" />
        </mxCell>
      </root>
    </mxGraphModel>
  </diagram>
</mxfile>
